<?xml version="1.0" standalone="no"?>
<!DOCTYPE svg PUBLIC "-//W3C//DTD SVG 20010904//EN"
 "http://www.w3.org/TR/2001/REC-SVG-20010904/DTD/svg10.dtd">
<svg version="1.0" xmlns="http://www.w3.org/2000/svg"
 width="700.000000pt" height="700.000000pt" viewBox="0 0 700.000000 700.000000"
 preserveAspectRatio="xMidYMid meet">
<metadata>
Created by potrace 1.11, written by Peter Selinger 2001-2013
</metadata>
<g transform="translate(0.000000,700.000000) scale(0.100000,-0.100000)"
fill="#000000" stroke="none">
<path d="M3305 6991 c-45 -11 -89 -37 -124 -72 -34 -34 -71 -98 -71 -124 0
-11 -11 -15 -42 -16 -105 -2 -345 -10 -363 -13 -14 -2 -26 7 -40 32 -27 48
-65 73 -117 79 -96 11 -179 -79 -158 -170 l8 -36 -624 -433 c-344 -238 -671
-465 -728 -505 l-103 -72 -37 26 c-26 19 -49 26 -84 26 -128 1 -200 -135 -128
-243 14 -22 30 -40 35 -40 4 0 -73 -164 -172 -364 -169 -340 -182 -364 -213
-375 -70 -25 -101 -115 -65 -185 11 -21 19 -42 17 -45 -2 -3 -6 -29 -10 -56
-3 -28 -17 -124 -32 -215 -14 -91 -27 -176 -29 -190 -2 -14 -5 -38 -8 -55 -3
-16 -13 -79 -22 -140 -15 -107 -18 -122 -30 -195 -17 -104 -29 -190 -29 -220
0 -25 14 -161 19 -190 1 -8 6 -44 9 -80 4 -36 9 -78 11 -95 2 -16 6 -61 10
-100 4 -38 8 -81 10 -95 2 -14 7 -56 10 -95 4 -38 9 -73 11 -76 2 -3 -14 -11
-35 -17 -52 -16 -121 -79 -151 -138 -34 -66 -35 -179 -3 -240 34 -64 67 -98
125 -127 63 -32 135 -40 195 -22 l42 13 141 -217 c78 -119 178 -271 222 -338
77 -118 80 -124 65 -146 -71 -108 58 -248 172 -187 13 6 30 -4 72 -43 58 -55
183 -170 384 -353 65 -60 131 -120 146 -134 15 -14 76 -46 136 -72 433 -187
407 -174 421 -217 27 -82 109 -119 182 -83 l40 20 218 -95 c309 -134 299 -129
306 -164 7 -37 54 -86 90 -95 56 -14 139 24 157 73 2 7 49 14 124 18 66 3 140
8 165 10 25 2 97 7 160 10 63 3 138 8 165 10 28 2 104 6 170 10 66 3 136 8
155 10 19 2 94 7 165 10 72 4 133 9 137 11 4 3 13 -3 20 -12 43 -55 79 -84
102 -85 14 -1 32 -2 39 -3 23 -4 89 39 104 68 8 16 16 49 17 72 l1 43 170 110
c94 61 220 142 280 181 61 39 283 184 495 321 568 369 523 343 557 326 32 -16
80 -15 114 4 74 39 91 142 34 203 l-23 25 74 198 c41 109 79 207 84 218 5 11
96 251 202 532 l193 513 30 0 c71 0 133 76 121 148 -7 48 -31 80 -74 100 -20
9 -39 17 -40 18 -3 2 -14 76 -37 264 -3 25 -8 56 -10 70 -4 23 -19 141 -31
235 -2 22 -7 51 -9 65 -2 14 -7 48 -10 75 -3 28 -8 64 -10 80 -3 17 -12 86
-20 155 -9 69 -18 140 -21 158 -2 17 -6 47 -8 65 -3 17 -8 55 -11 82 -3 28 -8
62 -11 76 -4 24 1 30 49 57 115 65 162 196 116 319 -25 66 -99 135 -163 153
-44 12 -126 10 -172 -5 -19 -6 -46 29 -235 307 -117 172 -234 344 -260 381
-34 50 -46 76 -43 94 7 35 -31 107 -64 123 -15 7 -46 14 -69 16 -35 2 -95 32
-310 157 -148 85 -291 168 -319 183 -28 16 -229 132 -447 258 l-397 229 0 46
c0 136 -160 197 -249 95 -17 -19 -31 -41 -31 -49 0 -8 -3 -15 -7 -16 -35 -5
-95 -7 -268 -13 l-201 -6 -13 37 c-8 20 -35 58 -61 84 -67 67 -161 93 -255 70z
m175 -76 c49 -25 116 -114 88 -116 -77 -6 -92 -4 -115 17 -25 24 -74 37 -111
29 -24 -4 -82 -42 -82 -53 0 -4 -22 -8 -49 -8 l-49 -2 12 27 c54 122 186 168
306 106z m635 -174 c3 -10 16 -31 29 -46 18 -21 22 -34 16 -49 -18 -47 -262
-665 -281 -711 -20 -49 -22 -50 -57 -47 -37 4 -38 5 -101 135 -35 73 -100 205
-145 294 l-80 162 24 19 c77 61 107 107 121 189 l10 59 112 3 c61 1 113 3 114
4 1 1 53 3 117 4 104 3 115 1 121 -16z m-529 -43 c-9 -53 -47 -119 -80 -142
-35 -22 -42 -21 -56 14 -12 29 -11 33 14 59 17 18 30 44 33 70 l6 41 45 0 45
0 -7 -42z m-478 -27 c33 -134 135 -214 272 -214 l66 0 46 -96 c25 -53 90 -184
144 -293 91 -183 96 -197 81 -213 -26 -26 -37 -52 -39 -88 l-1 -34 -106 -22
c-318 -66 -686 -143 -846 -176 -26 -5 -191 -40 -280 -59 -38 -9 -73 -16 -77
-16 -3 0 -20 24 -36 53 -28 49 -88 107 -111 107 -5 0 -12 4 -15 8 -5 8 298
939 308 949 2 3 19 7 38 10 51 8 95 40 114 84 15 33 23 39 48 40 115 3 321 11
323 13 1 1 15 1 30 1 25 -1 29 -7 41 -54z m132 38 c0 -58 50 -109 121 -123 23
-5 49 -40 49 -66 0 -13 -54 -12 -101 1 -77 24 -148 110 -149 182 0 25 3 27 40
27 34 0 40 -3 40 -21z m1235 -79 c6 -4 30 -18 55 -32 25 -14 132 -75 238 -136
105 -62 279 -162 385 -224 105 -61 208 -120 227 -131 152 -85 381 -220 386
-228 3 -5 -16 -9 -43 -10 -26 -1 -61 -2 -78 -3 -16 -2 -93 -6 -170 -10 -77 -4
-160 -9 -185 -11 -25 -2 -110 -6 -190 -10 -80 -4 -170 -8 -200 -10 -30 -2
-104 -7 -165 -10 -116 -6 -230 -12 -355 -20 -41 -2 -124 -6 -185 -10 -60 -3
-142 -8 -181 -11 l-71 -6 -17 46 -17 45 84 213 c47 117 117 295 157 396 l72
182 33 0 c17 0 47 11 66 24 l34 23 55 -30 c30 -17 60 -33 65 -37z m-2171 -503
l-157 -473 -62 -1 c-111 -1 -210 -67 -251 -167 l-19 -47 -45 5 c-25 3 -94 12
-155 21 -60 8 -126 17 -145 20 -105 13 -126 16 -140 20 -8 2 -40 6 -71 10 -31
3 -67 8 -80 10 -13 3 -44 7 -69 10 -121 14 -130 16 -136 41 -4 13 -2 30 4 37
6 6 63 48 127 92 63 44 171 118 238 165 130 91 146 102 560 390 569 395 530
369 545 354 11 -12 -11 -86 -144 -487z m3431 -346 c2 -16 10 -42 18 -57 17
-33 45 39 -241 -620 l-217 -498 -40 -1 c-22 -1 -54 -9 -71 -17 -29 -16 -31
-16 -65 15 -18 18 -79 73 -134 122 -55 50 -105 95 -111 100 -6 6 -52 48 -104
95 -51 47 -105 96 -120 110 -15 14 -63 57 -105 95 -43 39 -83 75 -89 80 -58
54 -222 204 -438 399 -95 86 -110 112 -65 112 37 1 298 15 357 19 30 2 111 7
180 11 69 3 148 8 175 9 28 2 111 6 185 10 74 4 155 8 180 10 25 2 104 7 175
10 72 4 150 9 175 10 25 2 110 7 190 10 80 4 147 9 149 11 7 7 12 -3 16 -35z
m474 -446 c133 -195 244 -361 247 -369 3 -7 -8 -28 -25 -47 -35 -38 -61 -106
-61 -160 0 -36 -2 -39 -42 -50 -24 -6 -52 -13 -63 -15 -11 -2 -108 -23 -215
-48 -107 -24 -267 -60 -355 -80 -88 -20 -185 -43 -217 -50 l-56 -13 -36 43
-37 44 52 117 c28 65 59 136 68 158 10 22 92 210 181 418 l164 377 41 -2 c22
0 54 6 70 15 17 9 33 16 36 17 3 0 115 -160 248 -355z m-2476 323 c18 -13 33
-24 35 -24 2 -1 -49 -299 -73 -424 -2 -12 -13 -74 -25 -138 -11 -64 -29 -169
-41 -232 -11 -63 -29 -167 -40 -230 -11 -63 -22 -126 -25 -140 -14 -75 -86
-487 -87 -496 0 -5 -19 -11 -41 -13 -22 -1 -60 -11 -84 -21 l-44 -20 -18 23
c-10 12 -64 79 -121 148 -101 123 -542 665 -766 941 l-111 138 33 50 c31 45
38 69 47 159 3 24 12 26 183 62 99 21 268 57 375 79 107 23 206 44 220 47 14
2 138 28 275 57 138 30 256 54 263 55 7 0 27 -9 45 -21z m193 -45 c23 -21 81
-74 130 -118 48 -44 99 -91 113 -104 14 -13 61 -55 105 -95 43 -39 84 -76 90
-81 6 -6 43 -39 81 -74 83 -76 137 -125 269 -246 55 -49 107 -97 116 -105 9
-8 78 -70 153 -138 134 -123 135 -124 121 -150 -8 -15 -14 -46 -14 -69 0 -24
-5 -43 -10 -43 -6 0 -63 -22 -128 -49 -64 -27 -202 -83 -307 -126 -104 -42
-203 -83 -220 -90 -16 -7 -79 -34 -140 -58 -223 -91 -531 -218 -562 -232 -30
-13 -32 -13 -47 10 -24 37 -65 72 -108 91 -35 16 -38 20 -33 48 4 27 53 301
70 391 3 17 7 44 10 60 3 17 7 41 10 55 3 14 7 41 10 60 3 19 14 85 25 145 28
153 88 493 95 535 3 19 12 71 21 115 8 44 17 96 20 115 21 138 29 164 54 177
33 17 29 18 76 -24z m-2871 -128 c28 -3 64 -8 80 -10 44 -7 463 -64 510 -70
169 -20 161 -17 169 -73 3 -26 7 -55 8 -66 3 -15 -113 -76 -647 -340 l-650
-323 -16 27 c-9 15 -29 36 -44 48 l-27 21 172 348 c94 192 173 350 175 351 2
2 22 5 45 7 22 2 53 11 68 21 30 19 62 53 62 65 0 4 10 6 23 4 12 -2 45 -6 72
-10z m847 -321 c22 -20 55 -42 74 -50 19 -8 34 -20 34 -28 0 -7 -11 -74 -25
-147 -14 -74 -28 -150 -31 -169 -3 -19 -8 -48 -11 -65 -4 -16 -7 -32 -8 -35
-1 -3 -4 -26 -8 -51 -13 -76 -16 -96 -53 -299 -19 -107 -37 -206 -39 -220 -4
-26 -39 -222 -49 -275 -8 -39 -12 -61 -30 -170 -9 -49 -18 -99 -20 -110 -2
-11 -6 -36 -10 -55 -3 -19 -8 -46 -11 -60 -3 -13 -7 -42 -11 -64 -7 -53 -10
-56 -42 -56 -15 0 -41 -9 -59 -19 l-32 -20 -47 52 c-25 29 -94 103 -153 166
-58 63 -114 123 -124 135 -10 12 -40 44 -65 71 -26 28 -101 109 -167 180 -66
72 -141 153 -166 180 -26 28 -60 64 -75 80 -15 17 -73 80 -129 140 -57 61
-119 128 -138 150 l-35 39 24 29 c13 16 24 32 24 37 0 5 114 65 253 134 138
68 439 217 667 330 228 113 417 206 419 206 2 0 21 -16 43 -36z m608 -351
c140 -174 327 -404 415 -512 215 -263 320 -393 328 -408 5 -7 -5 -30 -22 -53
-29 -41 -42 -88 -45 -170 l-1 -42 -110 -37 c-217 -75 -1154 -403 -1187 -416
-12 -5 -18 -2 -18 7 0 25 -59 95 -90 108 -16 7 -30 14 -30 15 0 2 13 77 30
166 16 90 32 180 35 199 3 19 17 94 30 165 13 72 26 146 29 165 3 19 8 46 11
60 2 14 18 104 35 200 17 96 40 222 50 280 10 58 26 146 35 195 9 50 18 101
20 115 3 14 12 66 20 115 22 128 19 121 75 128 27 3 62 13 77 21 15 8 35 15
43 15 8 0 130 -142 270 -316z m4209 123 c134 -70 149 -259 28 -347 -44 -32
-52 -31 -60 6 -3 20 1 30 20 42 84 55 71 193 -23 235 -27 12 -53 16 -69 12
-21 -5 -30 -1 -43 17 -9 13 -17 28 -17 34 0 25 115 26 164 1z m-200 -104 c-10
-13 -21 -39 -25 -57 -5 -27 -11 -34 -35 -37 -16 -3 -30 1 -33 8 -10 26 19 109
52 147 15 17 17 16 38 -10 21 -27 21 -28 3 -51z m7 -172 c14 -17 43 -34 65
-40 21 -6 39 -17 39 -25 0 -7 3 -20 6 -29 14 -36 -96 -8 -144 37 -13 12 -30
34 -38 49 -12 24 -12 27 4 31 35 9 44 6 68 -23z m-128 -24 c32 -70 118 -130
201 -140 24 -2 44 -6 46 -8 2 -2 6 -32 10 -68 4 -36 8 -67 10 -70 2 -3 6 -39
10 -80 4 -41 8 -77 10 -80 2 -3 6 -32 10 -65 3 -33 8 -73 10 -90 2 -16 9 -64
14 -105 20 -142 22 -158 26 -194 3 -20 7 -51 9 -68 3 -18 14 -107 26 -198 12
-91 23 -176 25 -190 2 -14 7 -52 11 -86 10 -91 -5 -89 -123 13 -54 47 -100 89
-103 92 -3 3 -57 51 -120 106 -63 55 -133 116 -155 136 -39 35 -346 306 -490
433 -38 33 -92 82 -120 107 -46 42 -286 251 -293 255 -2 1 2 27 9 58 l12 55
71 16 c39 9 80 19 91 21 11 2 72 15 135 30 234 54 285 65 305 69 11 3 32 7 47
11 15 3 30 6 32 6 3 1 56 13 118 29 142 34 152 35 166 5z m-5887 -298 c52 -56
103 -111 114 -123 11 -11 65 -70 120 -130 55 -60 107 -116 115 -125 8 -9 40
-43 70 -76 31 -32 85 -91 120 -129 36 -39 116 -126 179 -193 63 -68 123 -133
134 -145 10 -12 38 -42 61 -67 108 -115 106 -112 91 -157 -8 -22 -12 -58 -10
-80 l4 -39 -177 -99 c-97 -55 -262 -147 -367 -206 -104 -58 -248 -138 -318
-178 l-128 -72 -19 23 c-11 13 -19 26 -20 30 -1 17 -99 69 -150 79 -65 13 -62
6 -75 154 -3 33 -7 74 -10 90 -2 17 -7 57 -10 90 -3 33 -8 71 -10 85 -2 14 -7
57 -10 95 -3 39 -8 81 -10 95 -16 96 -15 146 10 305 14 94 28 181 30 195 4 31
31 207 50 325 8 50 16 108 20 130 3 23 7 50 9 60 2 11 7 45 12 75 4 30 9 58
10 63 1 4 2 12 3 17 0 6 16 10 35 10 29 0 44 -12 127 -102z m4672 -53 c17 -9
17 -15 1 -95 -9 -47 -18 -96 -20 -110 -2 -14 -9 -45 -14 -70 -5 -25 -23 -117
-39 -205 -17 -88 -55 -290 -86 -450 -30 -159 -57 -315 -61 -345 -3 -30 -12
-62 -20 -70 -16 -16 -22 -14 -214 95 -47 26 -110 61 -140 78 -30 16 -59 33
-65 37 -5 4 -39 23 -75 43 -36 19 -97 53 -137 76 -85 48 -88 50 -308 173 -138
77 -284 159 -291 162 -1 1 1 19 5 41 4 22 4 59 0 82 l-6 42 108 45 c59 25 156
65 215 90 60 24 204 83 319 131 222 92 285 118 510 209 77 32 154 64 171 71
72 33 77 34 104 6 14 -14 34 -30 43 -36z m395 -167 c199 -176 262 -231 286
-253 6 -6 67 -60 136 -120 69 -60 127 -112 130 -115 3 -3 39 -34 80 -70 91
-80 421 -372 471 -418 20 -18 44 -39 54 -46 21 -15 11 -66 -14 -67 -9 0 -23
-2 -31 -4 -13 -2 -74 -9 -190 -21 -19 -2 -91 -10 -160 -18 -69 -8 -152 -18
-185 -21 -33 -3 -73 -8 -90 -10 -16 -2 -51 -7 -77 -10 -27 -3 -69 -7 -95 -10
-27 -3 -63 -8 -81 -10 -18 -3 -60 -7 -95 -10 -34 -3 -114 -12 -177 -20 -63 -8
-142 -17 -175 -20 -92 -8 -158 -16 -176 -21 -12 -3 -18 4 -23 27 -9 46 -69 99
-112 99 -27 0 -34 4 -34 19 0 10 16 103 35 207 20 104 42 223 50 264 8 41 41
219 75 395 33 176 63 336 66 355 8 46 11 50 37 50 12 1 33 7 47 15 14 8 29 14
33 15 5 0 101 -82 215 -182z m-2303 -621 c37 -36 98 -65 149 -70 29 -3 40 -9
42 -23 3 -16 16 -113 39 -279 3 -16 11 -77 19 -135 9 -58 18 -123 20 -145 3
-22 8 -56 10 -75 101 -728 99 -703 81 -712 -8 -5 -23 -18 -33 -28 -18 -19 -19
-19 -77 17 -33 20 -73 43 -90 53 -16 9 -244 144 -505 300 -261 156 -484 288
-495 294 -11 7 -46 27 -78 46 -32 19 -66 40 -75 45 -194 115 -417 248 -419
249 -1 1 3 20 8 42 l10 40 147 51 c292 102 989 346 1082 379 l95 33 20 -26
c11 -15 34 -40 50 -56z m528 -5 c56 -33 127 -72 157 -89 30 -16 109 -61 175
-98 66 -38 143 -81 170 -96 392 -216 600 -339 602 -355 2 -15 -126 -114 -543
-421 l-545 -402 -32 19 c-18 11 -42 20 -54 20 -24 0 -28 10 -38 85 -8 60 -12
93 -19 143 -42 303 -57 411 -61 432 -2 14 -6 48 -10 75 -3 28 -8 61 -10 75 -2
14 -9 63 -15 110 -6 47 -13 96 -15 110 -2 14 -7 48 -10 75 -4 28 -9 61 -11 75
-25 168 -26 190 -8 190 24 0 84 39 119 77 17 18 34 33 38 33 4 0 54 -26 110
-58z m-2243 -502 c16 -16 48 -35 70 -41 29 -9 40 -18 41 -33 1 -12 2 -37 4
-56 1 -19 6 -107 10 -195 4 -88 9 -182 10 -210 2 -27 6 -115 10 -195 4 -80 9
-170 10 -200 2 -30 7 -120 11 -200 3 -80 7 -157 8 -172 2 -20 -3 -28 -14 -28
-9 0 -39 -12 -68 -26 -63 -31 -118 -102 -135 -173 l-12 -51 -50 -1 c-56 -1
-106 -4 -281 -13 l-121 -7 -13 30 c-16 39 -85 74 -129 66 -30 -5 -33 -2 -105
107 -40 62 -139 214 -220 337 l-147 224 35 36 c63 64 92 168 72 258 -5 22 8
30 254 166 19 10 49 27 65 37 17 9 55 31 85 47 30 17 150 83 265 148 116 65
233 131 260 146 28 16 51 29 52 29 1 0 16 -13 33 -30z m557 -171 c158 -95 357
-213 441 -263 84 -50 165 -98 180 -107 15 -9 180 -107 367 -219 187 -111 360
-214 385 -228 65 -36 67 -38 62 -71 -5 -39 13 -93 44 -126 l25 -28 -29 -76
c-17 -42 -79 -205 -139 -363 -62 -165 -113 -288 -121 -288 -6 0 -112 25 -235
54 -668 164 -842 207 -861 210 -12 2 -50 12 -86 21 -36 9 -70 18 -77 19 -21 4
-27 15 -30 64 -6 102 -105 223 -194 238 -20 3 -41 9 -47 13 -10 6 -17 88 -27
326 -3 66 -8 152 -10 190 -2 39 -7 133 -10 210 -3 77 -8 167 -10 200 -3 33 -7
123 -11 201 l-6 140 48 26 c27 15 50 27 51 27 1 1 131 -76 290 -170z m4633
139 c0 -6 10 -22 21 -34 l22 -23 -71 -188 c-39 -103 -123 -325 -186 -493 -64
-168 -155 -408 -203 -535 -47 -126 -89 -233 -93 -238 -3 -4 -24 -9 -46 -12
l-39 -6 -70 88 c-38 48 -72 90 -75 93 -3 3 -133 165 -290 360 -156 195 -290
362 -297 370 -7 8 -81 101 -165 205 l-153 190 31 31 c26 27 40 33 98 38 37 4
75 9 84 11 9 1 46 6 82 10 65 6 80 8 175 19 28 3 73 8 100 11 28 3 64 7 80 9
17 2 63 7 103 11 41 3 81 8 90 10 27 5 146 18 267 30 33 3 71 8 85 10 14 2 50
7 80 10 30 3 71 8 90 10 19 3 62 8 95 11 33 3 61 7 63 8 1 2 29 4 62 5 41 1
60 -2 60 -11z m-1814 -231 c-3 -23 -8 -69 -11 -102 -3 -33 -7 -76 -10 -95 -7
-55 -14 -119 -21 -195 -4 -38 -8 -81 -9 -95 -2 -14 -6 -56 -10 -95 -3 -38 -8
-86 -10 -105 -2 -19 -7 -65 -11 -102 -6 -66 -7 -68 -39 -74 -79 -14 -138 -65
-200 -169 -10 -17 -23 -14 -185 32 -96 28 -262 74 -367 103 -191 53 -193 54
-193 81 0 15 -4 38 -9 51 -10 26 -36 4 264 226 105 77 327 241 495 365 167
124 308 223 313 220 4 -2 5 -23 3 -46z m291 -232 c639 -794 870 -1082 877
-1093 4 -7 4 -21 1 -33 -5 -16 -13 -19 -38 -15 -25 4 -324 66 -442 92 -11 2
-29 6 -40 8 -29 6 -406 85 -431 91 -18 4 -20 11 -18 52 5 118 -88 238 -208
267 -22 5 -26 11 -23 34 2 15 6 54 9 87 4 33 8 76 11 95 2 19 7 60 9 90 9 95
16 158 22 213 3 28 7 70 9 92 5 55 18 178 21 188 1 4 2 20 3 36 1 26 3 28 31
22 24 -5 64 -49 207 -226z m-5001 56 c4 -37 2 -41 -25 -56 -109 -56 -62 -218
65 -229 32 -3 41 -10 62 -46 31 -52 22 -60 -59 -56 -196 10 -285 245 -142 377
28 27 85 60 91 54 2 -2 6 -21 8 -44z m124 38 c36 -11 81 -44 109 -81 11 -15 8
-19 -27 -37 l-39 -20 -23 24 c-12 13 -35 27 -50 30 -28 6 -40 27 -40 73 0 25
14 28 70 11z m145 -238 c-6 -46 -21 -78 -58 -118 -27 -31 -33 -29 -60 14 l-24
37 24 34 c13 19 23 43 23 53 0 10 17 27 43 41 41 23 42 23 50 5 4 -11 5 -40 2
-66z m3555 -576 c107 -30 274 -76 370 -103 l175 -49 7 -52 c15 -102 82 -186
176 -221 63 -24 102 -25 166 -6 64 20 108 51 142 103 34 52 13 53 294 -7 107
-23 205 -43 218 -46 12 -2 95 -20 185 -39 89 -18 178 -37 197 -40 19 -3 36 -8
38 -9 2 -2 -91 -27 -205 -55 -222 -56 -215 -54 -283 -70 -25 -5 -165 -39 -311
-75 -146 -36 -324 -79 -395 -96 -71 -17 -192 -47 -269 -66 -77 -19 -141 -30
-143 -26 -10 30 -65 103 -94 125 -42 33 -109 57 -155 57 l-34 0 -164 336 c-91
185 -165 338 -165 340 0 7 43 54 49 54 3 0 94 -25 201 -55z m-261 -111 c25
-49 98 -196 163 -328 65 -131 115 -242 112 -247 -3 -5 -10 -9 -15 -9 -32 0
-123 -90 -139 -137 -7 -18 -13 -33 -15 -33 -11 0 -488 120 -492 123 -4 5 53
164 82 232 7 17 53 134 101 262 l87 232 36 -3 c35 -2 38 -6 80 -92z m-2269
-345 c21 -78 103 -158 183 -180 36 -10 122 -9 166 2 14 4 66 -82 188 -311 25
-47 49 -89 53 -95 4 -5 27 -45 50 -88 l42 -77 -24 -29 -24 -28 -254 111 c-278
121 -245 100 -465 305 -33 31 -109 101 -170 156 -206 188 -223 205 -218 226 3
10 8 20 12 20 19 4 72 8 216 14 88 4 161 8 162 9 1 0 18 1 37 1 33 1 37 -2 46
-36z m828 -90 c158 -39 296 -72 307 -75 76 -15 644 -157 653 -163 7 -4 -34
-125 -127 -366 -112 -292 -142 -360 -157 -361 -10 -1 -27 -2 -37 -3 -11 -1
-35 -17 -55 -37 l-35 -35 -211 92 c-294 128 -289 125 -283 156 12 65 -44 139
-112 146 -36 4 -38 8 -114 147 -25 47 -91 166 -146 265 l-100 180 34 34 c19
19 40 47 47 62 8 17 21 29 31 29 10 0 148 -32 305 -71z m3752 23 c0 -5 -82
-61 -182 -126 -101 -65 -261 -168 -355 -229 -95 -62 -293 -190 -440 -285 -148
-96 -319 -207 -380 -247 l-113 -73 -37 20 c-21 10 -48 17 -59 15 -19 -3 -32
17 -103 161 -71 144 -80 167 -67 181 26 31 49 85 55 135 l6 50 170 43 c94 23
181 45 195 47 14 3 81 19 150 36 69 17 274 67 455 111 182 44 409 100 505 124
188 47 200 49 200 37z m-2461 -337 c129 -31 237 -58 240 -61 3 -2 7 -25 8 -51
7 -84 60 -162 143 -207 68 -37 162 -40 233 -8 l48 21 73 -152 73 -152 -23 -28
c-13 -16 -24 -35 -24 -43 0 -10 -14 -14 -52 -15 -29 0 -61 -2 -70 -4 -9 -2
-68 -6 -130 -10 -62 -3 -147 -8 -188 -11 -41 -2 -106 -6 -145 -9 -38 -2 -108
-6 -155 -9 -90 -6 -187 -12 -360 -21 -58 -3 -117 -8 -132 -11 -23 -5 -28 -2
-28 13 0 10 -13 34 -28 52 l-28 34 83 216 c46 119 109 285 140 368 44 117 61
152 73 148 8 -2 121 -29 249 -60z"/>
</g>
</svg>
