<svg xmlns="http://www.w3.org/2000/svg" width="9008" height="2700" viewBox="0 0 9008 2700">
  <g id="Group_9" data-name="Group 9" transform="translate(-3384 -2191)">
    <g id="Group_11" data-name="Group 11">
      <g id="Rectangle_2" data-name="Rectangle 2" transform="translate(3384 2191)" fill="#fff" stroke="#000" stroke-width="100">
        <rect width="2700" height="2700" stroke="none"/>
        <rect x="50" y="50" width="2600" height="2600" fill="none"/>
      </g>
      <g id="download_1_" data-name="download (1)" transform="translate(3726.153 2533.263)">
        <g id="Group_3" data-name="Group 3" transform="translate(0)">
          <g id="Group_2" data-name="Group 2">
            <g id="Group_1" data-name="Group 1">
              <path id="Path_1" data-name="Path 1" d="M4924.662,5052.027l419.7-291.589a42.676,42.676,0,1,1,80.591-26.794q61.408-2.147,122.856-4.328a78.4,78.4,0,0,1,132.384-40.338,79.117,79.117,0,0,1,20.27,34.967l135.525-4.821a41.316,41.316,0,1,1,79.873,19.933Q6123.542,4859,6331.238,4978.914a36.314,36.314,0,0,1,11.01-1.656,37.877,37.877,0,0,1,37.815,37.856,38.592,38.592,0,0,1-1.37,10.257q74.991,110.167,150.025,220.363A74.683,74.683,0,1,1,6582.4,5384.5q25.821,196.028,51.6,392.085a37.862,37.862,0,0,1-3.125,75.594,42.019,42.019,0,0,1-6.562-.55q-79.906,210.757-159.834,421.481a40.23,40.23,0,0,1,6.21,5.021,37.845,37.845,0,0,1-50.26,56.427q-213,138.082-426.155,276.138a37.833,37.833,0,1,1-72.082,22.533Q5740.478,6644.4,5558.8,6655.5a37.837,37.837,0,0,1-73.516-12.59v-.024q-75.268-32.9-150.522-65.756a37.837,37.837,0,0,1-64.259-27.074v-.983q-75.646-33.056-151.256-66.086l-176.515-161.709a37.858,37.858,0,0,1-48.858-57.469l-127.929-195.676a79.744,79.744,0,1,1-49.922-150.707q-11.843-107.255-23.717-214.46,23.773-155.358,47.533-310.828a37.838,37.838,0,0,1,22.362-63.986q51.8-104.733,103.593-209.5a47.887,47.887,0,0,1-7.73-6.153,44.978,44.978,0,0,1,63.6-63.616c1.031,1.025,2,2.125,2.921,3.225ZM4757.227,6054.555l-17.053-26.014a36.942,36.942,0,0,1-7.95.831,37.8,37.8,0,0,1-37.8-37.855c0-11.295,4.65-19.873,12.3-25.912a37.323,37.323,0,0,1,13.97-6.769l-2.816-25.52a63.831,63.831,0,0,0,15.9,125.643,64.219,64.219,0,0,0,23.452-4.442Zm-23.452-139.107a79.5,79.5,0,0,1,56.348,23.32,83.421,83.421,0,0,1,13.071,17.171l285.073-159.875a55.433,55.433,0,0,1-2.074-15,54.052,54.052,0,0,1,9.32-30.455l-321.573-347.817a37.146,37.146,0,0,1-7,.631,37.934,37.934,0,0,1-12.371-2.043l-46.205,301.892,23.483,212.125c.655,0,1.292-.066,1.93-.066Zm75.818,55.12a79.752,79.752,0,0,1-29.75,89.635l127.41,194.865a37.359,37.359,0,0,1,13.591-2.5,37.838,37.838,0,0,1,36.626,28.333l130.622-6.574a77.36,77.36,0,0,1,65.456-72.461q-9.148-183.333-18.322-366.689a53.92,53.92,0,0,1-33.152-15.659,51.146,51.146,0,0,1-7.189-8.894Zm-30.717-20.543a63.553,63.553,0,0,0-45.1-18.673h-.16l2.907,26.284a39.062,39.062,0,0,1,21.2,7.946,30.961,30.961,0,0,1,8.948,10.862l22.611-12.71a62.826,62.826,0,0,0-10.453-13.708Zm-7.709,96.857a58.293,58.293,0,0,0,7.709-6.609,63.606,63.606,0,0,0,18.677-45.137,62.292,62.292,0,0,0-2.209-16.605l-25.334,14.207a37.985,37.985,0,0,1-11.052,25.521,36.811,36.811,0,0,1-4.172,3.594l16.333,25.03ZM5564.26,4728.724l27.309-.944a39.5,39.5,0,0,1,5.392-6.843,37.8,37.8,0,0,1,53.518,0,46.463,46.463,0,0,1,3.937,4.6l29.626-1.039a62.508,62.508,0,0,0-103.454-24.26,62.728,62.728,0,0,0-16.327,28.51Zm138.783,10.94c.078,1.575.159,3.174.159,4.761a78.488,78.488,0,0,1-43.84,70.421l84.123,170.287a38.649,38.649,0,0,1,6.5-.553,37.65,37.65,0,0,1,14.728,2.991l89.785-227.207a41.4,41.4,0,0,1-17.955-25.421Zm-58.624,80.691a78.445,78.445,0,0,1-98.054-75.224l-120.86,4.253a42.679,42.679,0,0,1-42.19,36.265,35.68,35.68,0,0,1-5.668-.4l-90.834,273.961a81.622,81.622,0,0,1,46.262,50.737l379.972-79.411a37.106,37.106,0,0,1-.857-8.184,37.944,37.944,0,0,1,16.594-31.321l-84.333-170.758Zm-82.124-75.731a62.56,62.56,0,0,0,62.528,62.329,63.692,63.692,0,0,0,12.362-1.22l-10.042-20.345c-1.127.081-2.236.159-3.36.159a37.876,37.876,0,0,1-37.831-37.855c0-1.313.078-2.635.175-3.913Zm90.025,55.955A63.419,63.419,0,0,0,5669,4788.636a62.224,62.224,0,0,0,18.346-44.211c0-1.431-.042-2.831-.159-4.208l-26.151.9a41.049,41.049,0,0,1,.562,6.516,37.762,37.762,0,0,1-11.076,26.759,39.834,39.834,0,0,1-8.076,6.2Zm885.467,458.392,11.757,17.3a39.486,39.486,0,0,1,28.289,73.6l2.486,18.557a57.779,57.779,0,0,0,22.992-14.232,58.754,58.754,0,0,0-65.524-95.186Zm29,128.185c-1.662.135-3.3.16-5,.16a74.649,74.649,0,0,1-70.225-49.343l-275,62.66c.078,1.007.078,2.008.078,2.991a48.459,48.459,0,0,1-7.6,26.113l400.262,353.419a35.765,35.765,0,0,1,8.948-4.565l-51.468-391.377Zm-79-64.61a70.1,70.1,0,0,1-.637-9.9,74.445,74.445,0,0,1,21.857-52.808,68.109,68.109,0,0,1,6.323-5.626l-145.3-213.411c-.312.369-.691.721-1,1.034a37.723,37.723,0,0,1-26.734,11.1,36.918,36.918,0,0,1-14.349-2.833l-135.2,311.536a51.009,51.009,0,0,1,9.6,7.476,48.268,48.268,0,0,1,10.689,16.056l274.76-62.567Zm36.512-55.194c-1.419,1.185-2.771,2.443-4.063,3.7a58.641,58.641,0,0,0-17.189,41.553,54.3,54.3,0,0,0,.342,6.375l18.893-4.3v-.868a39.313,39.313,0,0,1,11.566-27.922c.619-.631,1.253-1.221,1.881-1.773l-11.4-16.8Zm-17.145,67.054A59.573,59.573,0,0,0,6520.2,5354.2a58.481,58.481,0,0,0,41.549,17.223c.974,0,1.924-.024,2.9-.082l-2.408-18.045h-.613a39.329,39.329,0,0,1-27.911-11.565,38.058,38.058,0,0,1-8.024-11.629l-18.623,4.229ZM4932.53,5065.916a45.725,45.725,0,0,1,2.464,14.718c0,.691,0,1.4-.054,2.086l241.531,32.9a81.407,81.407,0,0,1,95.252-60.972l90.976-274.3a42.731,42.731,0,0,1-9.161-6.847l-420.925,292.413Zm-1.109,32.307a45.984,45.984,0,0,1-9.614,14.247,45,45,0,0,1-41.222,12.142l-101.471,205.173a37.793,37.793,0,0,1,24.577,26.813l378.435-187.308a80.454,80.454,0,0,1-7.872-34.979c0-1.025,0-2.008.045-3.033l-242.917-33.055ZM6064.869,6143.208a77.5,77.5,0,0,1,66.5,91.727L6408.058,6293a37.548,37.548,0,0,1,6.549-11.959l-308.184-383.118c-.736.057-1.49.081-2.245.081a37.5,37.5,0,0,1-13.654-2.543l-25.655,247.827Zm61.836,106.917a77.336,77.336,0,0,1-148.58-30.144c0-1.929.082-3.895.175-5.782l-217.442-61.073a45.135,45.135,0,0,1-14.649,15.112l96.289,195.886c2.215-.2,4.494-.277,6.778-.277a77.393,77.393,0,0,1,74.165,55.522l466.736-113.932-263.523-55.273Zm-145.484-51.645a77.5,77.5,0,0,1,67.79-55.546l26.724-257.917a37.7,37.7,0,0,1-3.478-4.668l-309.632,228.94a45.642,45.642,0,0,1,4.785,20.408,48.823,48.823,0,0,1-.773,8.554l214.62,60.286ZM5308.4,6512.2a37.877,37.877,0,0,1,37.84,37.856,37.227,37.227,0,0,1-2.5,13.6l145.154,63.371a37.851,37.851,0,0,1,34.387-21.995,37.06,37.06,0,0,1,6.423.546l80.415-210.4-371.845-90.838a77.668,77.668,0,0,1-18.186,28.74,73.816,73.816,0,0,1-10.5,8.815l94.162,170.665a38.075,38.075,0,0,1,4.794-.318Zm-33.966,21.211a37.1,37.1,0,0,1,7.244-10.111,38.336,38.336,0,0,1,6.781-5.393l-92.921-168.315a77.368,77.368,0,0,1-106.653-59.444l-130.778,6.633a38.042,38.042,0,0,1-4.653,12.806l174.537,159.862,146.408,63.961Zm269.913,78.07a40.241,40.241,0,0,1,5.548,4.607,37.769,37.769,0,0,1,10.925,23.357l360.886-22.136a37.549,37.549,0,0,1,10.477-19.994,38.511,38.511,0,0,1,5.185-4.366l-43.559-88.579a77.36,77.36,0,0,1-121.9-63.249c0-2.149.082-4.273.268-6.378l-146.642-35.833-81.187,212.534Zm414.586-25.235a37.665,37.665,0,0,1,26.749,11.093h0l424.646-275.161a36.728,36.728,0,0,1-2.116-4.838l-481.9,117.638c.168,2.064.25,4.146.25,6.221a77.207,77.207,0,0,1-20.438,52.39l45.856,93.337a35.971,35.971,0,0,1,6.95-.631Zm-183.812-167.029a77.4,77.4,0,0,1,51.275-51.94l-94.838-192.979a45,45,0,0,1-20.131-.075l-80.171,209.84ZM5169.4,6201.079a77.441,77.441,0,0,1,72.534,87.829l373.789,91.349,81.069-212.236a48.466,48.466,0,0,1-7.481-6.039,45.812,45.812,0,0,1-11.321-45.924q-249.467-148.331-498.941-296.741l-.2.2a54.078,54.078,0,0,1-27.769,14.872l18.316,366.746Zm738.542-1448.35c-.627.706-1.268,1.436-1.926,2.125a41.173,41.173,0,0,1-29.193,12.064,44.272,44.272,0,0,1-7.533-.652l-91.246,230.826a37.654,37.654,0,0,1,9.646,22.9l525.531-29.178c.73-.808,1.487-1.674,2.283-2.461l.154-.156-407.749-235.433ZM5785.246,5036a34.729,34.729,0,0,1-3.03,6.191l355.294,323.187a48.519,48.519,0,0,1,30.3-10.547,47.786,47.786,0,0,1,10.128,1.063l136.688-314.962a37.679,37.679,0,0,1-10.2-25.851,38.5,38.5,0,0,1,.841-7.95L5785.312,5036Zm-13.976,17.685a36.747,36.747,0,0,1-16.056,6.216l-85.58,483.222a77.234,77.234,0,0,1,46.89,37.779L6120.2,5414.638a47.938,47.938,0,0,1-1.25-11.016,48.648,48.648,0,0,1,7.835-26.524L5771.188,5053.68Zm-31.941,5.059a37.794,37.794,0,0,1-16.091-9.543,33.932,33.932,0,0,1-3.321-3.778l-383.665,80.153a70.89,70.89,0,0,1,.52,8.776,81.193,81.193,0,0,1-23.816,57.53l-.276.259,293.359,360.7a77.16,77.16,0,0,1,42.432-12.632c1.882,0,3.77.082,5.582.2q42.722-240.765,85.277-481.607Zm870.22,786.784a38.485,38.485,0,0,1-15.181-21.186l-455.856,51.528a37.909,37.909,0,0,1-7.634,10.979,39.6,39.6,0,0,1-8.028,6.176l304.083,378a37.532,37.532,0,0,1,17.015-4.072,36.855,36.855,0,0,1,5.7.448Zm-16.095-37.067a37.241,37.241,0,0,1,4.971-13.709l-400-353.113a48.331,48.331,0,0,1-30.657,10.844H6166.6l-66.76,352.555-1.848,17.787a39.648,39.648,0,0,1,6.146-.472,37.88,37.88,0,0,1,37.823,37.248l451.531-51.062Zm-871.87-165.914,350.88,196.883a39.489,39.489,0,0,1,4.881-6.06,37.97,37.97,0,0,1,3.931-3.461l2.786-26.973.078-.628,66.817-352.84a48.824,48.824,0,0,1-24.732-20.2l-403.664,166.275a76.564,76.564,0,0,1,3.165,21.917,77.864,77.864,0,0,1-4.142,25.066Zm345.157,211.839L5714.927,5657.02a77.524,77.524,0,0,1-48.134,35.67l53.919,391.284h.872a45.339,45.339,0,0,1,31.48,12.605l313.518-231.812a30.826,30.826,0,0,1-.3-4.607,35.39,35.39,0,0,1,.462-5.743Zm-766.392-652.27a81.068,81.068,0,0,1-44.924,13.538c-2.11,0-4.235-.082-6.321-.241l-91.457,514.233a54.387,54.387,0,0,1,35.436,38.425l380.064-132.686a79.07,79.07,0,0,1-2.043-17.851,77.3,77.3,0,0,1,22.589-54.659L5300.3,5202.147Zm-66.827,10.541a81.569,81.569,0,0,1-35.534-20.775,80.664,80.664,0,0,1-7.712-8.932l-386.52,191.322a37.963,37.963,0,0,1-10.1,18.178,31.189,31.189,0,0,1-4.375,3.739l316.929,342.78a53.982,53.982,0,0,1,34.212-12.137,15.505,15.505,0,0,1,1.6.057Q5187.794,5469.769,5233.523,5212.652Zm-38.937,571.681a53.844,53.844,0,0,1-6.149,22.143l496.78,295.457a52.538,52.538,0,0,1,4.012-4.6,45.552,45.552,0,0,1,15.867-10.309q-26.982-196.14-54.04-392.218c-.89.052-1.812.052-2.669.052a77.283,77.283,0,0,1-54.693-22.666,78.2,78.2,0,0,1-15.358-21.877L5194.586,5784.3ZM4768.75,5365.689h-1.842l1.29,1.295a4.646,4.646,0,0,1,.511-1.295Z" transform="translate(-4654 -4666)" fill="#1c1c1c"/>
            </g>
          </g>
        </g>
      </g>
    </g>
    <g id="Group_10" data-name="Group 10">
      <g id="Rectangle_1" data-name="Rectangle 1" transform="translate(6084 2191)" stroke="#000" stroke-width="1">
        <rect width="6308" height="2700" stroke="none"/>
        <rect x="0.5" y="0.5" width="6307" height="2699" fill="none"/>
      </g>
      <text id="OnlyNews" transform="translate(6616 3955)" fill="#fff" font-size="1000" font-family="SegoeUIHistoric, Segoe UI Historic"><tspan x="0" y="0">ONLYNEWS</tspan></text>
    </g>
  </g>
</svg>
