<svg xmlns="http://www.w3.org/2000/svg" width="6624" height="1585" viewBox="0 0 6624 1585">
  <g id="Logo-blue" transform="translate(-1302 -1005)">
    <g id="Globe-Blue" transform="translate(-3352 -3576)">
      <g id="Group_3" data-name="Group 3" transform="translate(4654 4666)">
        <g id="Group_2" data-name="Group 2">
          <g id="Group_1" data-name="Group 1">
            <path id="Path_1" data-name="Path 1" d="M4855.507,4953.383l312.469-217.078a31.776,31.776,0,1,1,60.008-19.952q45.717-1.6,91.463-3.226a58.4,58.4,0,0,1,113.655-4l100.9-3.582a30.755,30.755,0,0,1,61.132,4.825,31.115,31.115,0,0,1-1.657,10.006q154.637,89.3,309.244,178.564a27.731,27.731,0,0,1,8.2-1.214,28.241,28.241,0,0,1,27.134,35.819q55.837,82.014,111.7,164.059a55.6,55.6,0,1,1,39.976,103.313q19.219,145.956,38.408,291.912a28.186,28.186,0,0,1-2.309,56.275,29.7,29.7,0,0,1-4.911-.414q-59.476,156.924-118.981,313.818a29.623,29.623,0,0,1,4.616,3.73,28.168,28.168,0,0,1-37.4,42.006q-158.632,102.8-317.293,205.591a28.17,28.17,0,1,1-53.676,16.785q-135.285,8.3-270.541,16.578a28.176,28.176,0,0,1-54.741-9.384v-.03q-56.013-24.467-112.057-48.934A28.171,28.171,0,0,1,5113,6068.7v-.74q-56.324-24.6-112.619-49.2l-131.408-120.394a28.178,28.178,0,0,1-36.366-42.776l-95.25-145.705a59.368,59.368,0,1,1-37.164-112.194l-17.666-159.677q17.71-115.673,35.39-231.4a28.166,28.166,0,0,1,16.629-47.631Q4773.115,5081,4811.685,5003a35.845,35.845,0,0,1-5.74-4.588,33.484,33.484,0,0,1,47.344-47.364c.77.77,1.479,1.568,2.16,2.4Zm-124.663,746.4-12.664-19.36a27.671,27.671,0,0,1-5.918.622,28.192,28.192,0,0,1-28.169-28.182,23.483,23.483,0,0,1,9.173-19.3,27.8,27.8,0,0,1,10.386-5.032l-2.1-19.005a47.523,47.523,0,1,0,29.294,90.229Zm-17.458-103.58a59.11,59.11,0,0,1,41.958,17.376,60.384,60.384,0,0,1,9.735,12.789l212.248-119.033a40.84,40.84,0,0,1-1.568-11.16,40.349,40.349,0,0,1,6.954-22.676L4743.3,5214.539a27.489,27.489,0,0,1-5.208.474,28.085,28.085,0,0,1-9.232-1.54l-34.384,224.774,17.488,157.93c.474,0,.947-.029,1.42-.029Zm56.458,41.059a59.5,59.5,0,0,1-14.5,60.271,58.706,58.706,0,0,1-7.634,6.454l94.836,145.083a28.213,28.213,0,0,1,30.033,6.394,28.389,28.389,0,0,1,7.368,12.848l97.233-4.915a57.625,57.625,0,0,1,48.734-53.936q-6.791-136.5-13.641-273A40.246,40.246,0,0,1,4987.6,5524.8a39.8,39.8,0,0,1-5.355-6.631Zm-22.873-15.3a47.306,47.306,0,0,0-33.585-13.913h-.118l2.16,19.567a29.393,29.393,0,0,1,15.8,5.92,23.7,23.7,0,0,1,6.658,8.082l16.836-9.443a46.881,46.881,0,0,0-7.782-10.213Zm-5.741,72.112a45.319,45.319,0,0,0,5.741-4.914,47.612,47.612,0,0,0,12.279-45.973l-18.878,10.568a28.2,28.2,0,0,1-8.226,19,29.778,29.778,0,0,1-3.107,2.694l12.161,18.62Zm590.467-981.39,20.328-.71a30.44,30.44,0,0,1,4.024-5.092,28.136,28.136,0,0,1,39.828,0,29.374,29.374,0,0,1,2.929,3.434l22.074-.77a46.528,46.528,0,0,0-77.023-18.059,46.676,46.676,0,0,0-12.161,21.226Zm103.328,8.141c.059,1.184.118,2.368.118,3.552a58.462,58.462,0,0,1-32.638,52.426l62.642,126.789a28.648,28.648,0,0,1,4.823-.415,28.293,28.293,0,0,1,10.978,2.22l66.843-169.15a31.571,31.571,0,0,1-5.148-4.144,30.823,30.823,0,0,1-8.226-14.8Zm-43.646,60.094a58.429,58.429,0,0,1-73-56.009l-89.983,3.167a31.794,31.794,0,0,1-31.4,27,28.3,28.3,0,0,1-4.231-.3l-67.643,203.962a60.787,60.787,0,0,1,34.443,37.773l282.909-59.117a27.694,27.694,0,0,1-.651-6.1,28.109,28.109,0,0,1,8.255-19.923,28.621,28.621,0,0,1,4.113-3.4l-62.79-127.114Zm-61.133-56.394a46.583,46.583,0,0,0,46.545,46.417,46.885,46.885,0,0,0,9.2-.917l-7.486-15.157c-.828.059-1.657.118-2.485.118a28.191,28.191,0,0,1-28.169-28.181c0-.977.059-1.954.147-2.9Zm67.021,41.651a47.605,47.605,0,0,0,12.428-8.881,46.411,46.411,0,0,0,13.641-32.918c0-1.066-.029-2.1-.118-3.138l-19.47.682a29.106,29.106,0,0,1,.414,4.854,28.106,28.106,0,0,1-8.256,19.922,28.556,28.556,0,0,1-6.007,4.588Zm659.233,341.29,8.758,12.877a29.4,29.4,0,0,1,21.068,54.794l1.834,13.825A43.757,43.757,0,1,0,6056.5,5107.5Zm21.6,95.439c-1.243.088-2.456.118-3.729.118a55.6,55.6,0,0,1-52.285-36.737l-204.732,46.654c.059.74.059,1.48.059,2.22a36.069,36.069,0,0,1-5.652,19.449l298,263.109a27.2,27.2,0,0,1,6.658-3.4L6078.1,5202.935Zm-58.825-48.1a55.883,55.883,0,0,1,15.8-46.683,52.857,52.857,0,0,1,4.706-4.2L5931.6,4945.035c-.237.267-.5.533-.74.77a28.156,28.156,0,0,1-30.6,6.158L5799.6,5183.9a37.49,37.49,0,0,1,7.161,5.566,36.324,36.324,0,0,1,7.959,11.959l204.555-46.6Zm27.193-41.089a38.239,38.239,0,0,0-3.018,2.753,43.59,43.59,0,0,0-12.812,30.935,41.91,41.91,0,0,0,.266,4.736l14.055-3.2v-.652a29.294,29.294,0,0,1,8.611-20.781q.71-.71,1.42-1.332l-8.492-12.492Zm-12.753,49.91a44.237,44.237,0,0,0,9.705,14.742,43.554,43.554,0,0,0,30.922,12.818c.739,0,1.45-.03,2.16-.06l-1.775-13.439h-.474a29.267,29.267,0,0,1-20.771-8.614,28.789,28.789,0,0,1-5.977-8.644l-13.849,3.138ZM4861.366,4963.744a33.5,33.5,0,0,1,1.834,10.953c0,.5,0,1.036-.029,1.539l179.817,24.481a60.541,60.541,0,0,1,58.884-46.564,62.2,62.2,0,0,1,12.043,1.184l67.731-204.2a31.518,31.518,0,0,1-6.835-5.121l-313.386,217.728Zm-.829,24.037a33.517,33.517,0,0,1-30.833,20.4,34.365,34.365,0,0,1-7.013-.74l-75.543,152.75a28.215,28.215,0,0,1,18.316,19.952l281.726-139.458a60.241,60.241,0,0,1-5.858-26.021c0-.77,0-1.51.029-2.28l-180.854-24.6Zm843.874,778.02a57.7,57.7,0,0,1,49.5,68.293l206,43.221a28.09,28.09,0,0,1,4.882-8.911l-229.439-285.222c-.562.03-1.125.059-1.687.059a28.121,28.121,0,0,1-10.15-1.894l-19.114,184.513Zm46.042,79.6a57.591,57.591,0,0,1-110.636-22.438c0-1.451.059-2.9.148-4.322l-161.886-45.47a34.067,34.067,0,0,1-5.148,6.631,33.461,33.461,0,0,1-5.771,4.618l71.7,145.853c1.657-.147,3.345-.207,5.031-.207a57.624,57.624,0,0,1,55.244,41.325L5946.6,5886.58l-196.181-41.148Zm-108.329-38.454a57.687,57.687,0,0,1,50.48-41.355l19.885-192.033a29.124,29.124,0,0,1-2.574-3.464L5479.38,5740.55a33.95,33.95,0,0,1,3.581,15.186,34.88,34.88,0,0,1-.591,6.365l159.786,44.877Zm-500.9,233.565a28.22,28.22,0,0,1,26.305,38.307l108.063,47.187a28.241,28.241,0,0,1,25.6-16.4,28.555,28.555,0,0,1,4.793.415l59.861-156.628L5089,5885.751a57.965,57.965,0,0,1-13.522,21.4,57.332,57.332,0,0,1-7.841,6.572l70.128,127.055a27.8,27.8,0,0,1,3.551-.236Zm-25.3,15.779a27.737,27.737,0,0,1,5.385-7.519,28.786,28.786,0,0,1,5.06-4.026l-69.181-125.309a57.6,57.6,0,0,1-79.419-44.256l-97.351,4.943a28.534,28.534,0,0,1-3.462,9.532l129.929,119.033,109.01,47.6Zm200.945,58.14a28.612,28.612,0,0,1,4.143,3.434,28.238,28.238,0,0,1,8.137,17.376l268.676-16.489a28,28,0,0,1,7.812-14.891,28.829,28.829,0,0,1,3.847-3.226l-32.431-65.955a57.591,57.591,0,0,1-90.752-47.1c0-1.6.059-3.167.207-4.736l-109.187-26.672L5316.873,6114.4Zm308.682-18.8a28.082,28.082,0,0,1,19.915,8.259h0l316.138-204.851a30.237,30.237,0,0,1-1.568-3.612l-358.777,87.595q.178,2.309.178,4.618a57.493,57.493,0,0,1-15.209,39.017l34.147,69.478a27.128,27.128,0,0,1,5.178-.474ZM5488.7,5971.273a57.654,57.654,0,0,1,38.171-38.661l-70.6-143.663a33.669,33.669,0,0,1-7.4.8,34.017,34.017,0,0,1-7.6-.858L5381.586,5945.1Zm-450.979-162.4a57.661,57.661,0,0,1,54,65.393l278.292,68,60.364-157.99a34.042,34.042,0,0,1-14-38.69q-185.75-110.433-371.471-220.925l-.148.147a40.481,40.481,0,0,1-20.683,11.071l13.641,273.026Zm549.869-1078.31c-.474.533-.947,1.066-1.45,1.57a30.656,30.656,0,0,1-21.749,9,31.472,31.472,0,0,1-5.592-.5L5490.861,4912.5a27.924,27.924,0,0,1,7.19,17.051l391.267-21.729c.533-.621,1.094-1.243,1.687-1.835l.118-.119-303.562-175.277Zm-91.345,210.89a27.878,27.878,0,0,1-2.278,4.618L5758.5,5186.683a36.12,36.12,0,0,1,22.547-7.845,37.264,37.264,0,0,1,7.546.77l101.759-234.483a28.1,28.1,0,0,1-7.575-19.242,27.731,27.731,0,0,1,.621-5.921l-387.125,21.492Zm-10.415,13.173a27.548,27.548,0,0,1-11.954,4.619l-63.708,359.761a57.549,57.549,0,0,1,34.887,28.123L5745.6,5223.36a36.568,36.568,0,0,1,4.912-27.945l-264.741-240.79Zm-23.79,3.761a28.218,28.218,0,0,1-11.984-7.105,24.684,24.684,0,0,1-2.456-2.812l-285.631,59.679A60.541,60.541,0,0,1,5144.6,5057.5l-.207.208,218.432,268.556a57.319,57.319,0,0,1,31.573-9.414c1.391,0,2.811.059,4.172.147q31.78-179.259,63.471-358.577Zm647.9,585.778a29.617,29.617,0,0,1-4.054-3.375,28.259,28.259,0,0,1-7.249-12.4l-339.4,38.365a28.127,28.127,0,0,1-5.681,8.17,29.165,29.165,0,0,1-5.977,4.588l226.392,281.433a27.967,27.967,0,0,1,16.9-2.694Zm-11.984-27.59a27.993,27.993,0,0,1,3.7-10.213l-297.793-262.9a36.1,36.1,0,0,1-22.843,8.082h-.859L5730.45,5514l-1.361,13.262a28.633,28.633,0,0,1,4.557-.356,28.2,28.2,0,0,1,28.169,27.738l336.171-38.01Zm-649.113-123.532,261.219,146.563a29.585,29.585,0,0,1,3.639-4.5,30.435,30.435,0,0,1,2.93-2.575l2.071-20.07.059-.474,49.741-262.695a36.25,36.25,0,0,1-18.405-15.038l-300.544,123.769a57.407,57.407,0,0,1,2.367,16.341,58.134,58.134,0,0,1-3.077,18.65ZM5705.8,5550.767l-261.93-146.948a57.7,57.7,0,0,1-35.833,26.554l40.153,291.32h.651a33.769,33.769,0,0,1,23.435,9.385l233.4-172.584a26.422,26.422,0,0,1-.207-3.434,28.926,28.926,0,0,1,.326-4.263Zm-570.582-485.633a60.209,60.209,0,0,1-33.437,10.065c-1.6,0-3.167-.06-4.734-.178l-68.086,382.852a40.521,40.521,0,0,1,26.395,28.626l282.968-98.785a57.738,57.738,0,0,1,15.3-54l-218.432-268.556Zm-49.771,7.845a60.663,60.663,0,0,1-32.194-22.113l-287.762,142.448a28.23,28.23,0,0,1-7.515,13.528,26.478,26.478,0,0,1-3.255,2.783l235.95,255.205a40.2,40.2,0,0,1,25.477-9.029c.385,0,.8,0,1.184.03Q5051.422,5264.4,5085.45,5072.979Zm-28.969,425.628a40.321,40.321,0,0,1-4.586,16.488l369.874,219.979a33.028,33.028,0,0,1,2.989-3.434,33.973,33.973,0,0,1,11.806-7.7q-20.106-146-40.242-292c-.651.029-1.332.029-1.983.029a57.593,57.593,0,0,1-52.137-33.155l-285.72,99.761Zm-317.056-311.687h-1.361l.947.947a3.738,3.738,0,0,1,.384-.947Z" transform="translate(-4654 -4666)" fill="#0e6b82"/>
          </g>
        </g>
      </g>
    </g>
    <g id="Rectangle_1" data-name="Rectangle 1" transform="translate(3107 1005)" fill="#0e6b82" stroke="#707070" stroke-width="1">
      <rect width="50" height="1500" stroke="none"/>
      <rect x="0.5" y="0.5" width="49" height="1499" fill="none"/>
    </g>
    <text id="OnlyNews" transform="translate(3462 2169)" fill="#0e6b82" font-size="1000" font-family="SegoeUI, Segoe UI"><tspan x="0" y="0">OnlyNews</tspan></text>
  </g>
</svg>
